<?xml version="1.0" encoding="UTF-8"?><svg id="Calque_2" xmlns="http://www.w3.org/2000/svg" viewBox="0 0 637.42 607"><defs><style>.cls-1{fill:#212529;}</style></defs><g id="Calque_1-2"><g><path class="cls-1" d="m612.41,212.51c0,6.9-5.59,12.49-12.49,12.49h-175.01c-6.9,0-12.49-5.59-12.49-12.49V37.5c0-6.9,5.59-12.49,12.49-12.49h87.5c6.9,0,12.5-5.6,12.5-12.5s-5.6-12.5-12.5-12.5h-87.5c-20.71,0-37.5,16.79-37.5,37.5v175.01c0,20.71,16.79,37.5,37.5,37.5h175.01c20.71,0,37.5-16.79,37.5-37.5v-87.5c0-6.9-5.6-12.5-12.5-12.5s-12.5,5.6-12.5,12.5v87.5Z"/><path class="cls-1" d="m594.62,3.67c-4.88-4.89-12.8-4.89-17.67,0l-104.35,104.34c-1.91,1.91-3.15,4.39-3.53,7.07l-6.53,45.66c-.55,3.9.75,7.83,3.54,10.61,2.78,2.79,6.7,4.09,10.61,3.54l45.66-6.53c2.67-.38,5.16-1.62,7.07-3.53l104.34-104.35c2.34-2.34,3.67-5.52,3.67-8.84s-1.32-6.49-3.67-8.84l-39.13-39.13Z"/></g><path class="cls-1" d="m364.41,417.32v97.61c0,18.8-10.47,36.74-27.13,46.57-51.48,30.33-103.17,45.5-155.08,45.5s-103.6-15.17-155.08-45.5c-16.66-9.83-27.13-27.55-27.13-46.57v-97.61c0-55.32,45.07-100.4,100.4-100.4h163.4c55.32,0,100.4,45.07,100.4,100.4h.22Zm-182.2-125.39c54.25,0,98.47-44.22,98.47-98.47s-44.22-98.47-98.47-98.47-98.47,44.22-98.47,98.47,44.22,98.47,98.47,98.47Z"/></g></svg>