<?xml version="1.0" encoding="UTF-8"?><svg id="Calque_2" xmlns="http://www.w3.org/2000/svg" viewBox="0 0 613.41 658"><defs><style>.cls-1{fill:none;stroke:#212529;stroke-miterlimit:10;stroke-width:28px;}.cls-2{fill:#212529;}</style></defs><g id="Calque_1-2"><path class="cls-2" d="m541.46,113.04h-41.09v-41.09c0-6.6-5.35-11.96-11.96-11.96s-11.96,5.35-11.96,11.96v41.09h-41.09c-6.62,0-11.96,5.37-11.96,11.96s5.35,11.96,11.96,11.96h41.09v41.09c0,6.6,5.35,11.96,11.96,11.96s11.96-5.35,11.96-11.96v-41.09h41.09c6.6,0,11.96-5.35,11.96-11.96s-5.35-11.96-11.96-11.96Z"/><circle class="cls-1" cx="488.41" cy="125" r="111"/><path class="cls-2" d="m364.41,468.32v97.61c0,18.8-10.47,36.74-27.13,46.57-51.48,30.33-103.17,45.5-155.08,45.5s-103.6-15.17-155.08-45.5c-16.66-9.83-27.13-27.55-27.13-46.57v-97.61c0-55.32,45.07-100.4,100.4-100.4h163.4c55.32,0,100.4,45.07,100.4,100.4h.22Zm-182.2-125.39c54.25,0,98.47-44.22,98.47-98.47s-44.22-98.47-98.47-98.47-98.47,44.22-98.47,98.47,44.22,98.47,98.47,98.47Z"/></g></svg>